<?xml version="1.0" encoding="UTF-8" standalone="no"?>
<!-- Created with Inkscape (http://www.inkscape.org/) -->

<svg
   version="1.1"
   id="svg1"
   width="142.72491"
   height="148.56189"
   viewBox="0 0 142.72491 148.56189"
   xml:space="preserve"
   xmlns:xlink="http://www.w3.org/1999/xlink"
   xmlns="http://www.w3.org/2000/svg"
   xmlns:svg="http://www.w3.org/2000/svg"><defs
     id="defs1"><linearGradient
       id="linearGradient5"><stop
         style="stop-color:#c7dcff;stop-opacity:1;"
         offset="0"
         id="stop5" /><stop
         style="stop-color:#c7dcff;stop-opacity:0;"
         offset="1"
         id="stop6" /></linearGradient><filter
       style="color-interpolation-filters:sRGB"
       id="filter4"
       x="-0.074021382"
       y="-0.11020803"
       width="1.1480428"
       height="1.2204161"><feGaussianBlur
         stdDeviation="2.9990121"
         id="feGaussianBlur4" /></filter><filter
       style="color-interpolation-filters:sRGB"
       id="filter5"
       x="-0.44485365"
       y="-0.37134492"
       width="1.8897073"
       height="1.7426898"><feGaussianBlur
         stdDeviation="1.695891"
         id="feGaussianBlur5" /></filter><linearGradient
       xlink:href="#linearGradient5"
       id="linearGradient6"
       x1="-750.76044"
       y1="-40.635437"
       x2="-566.99603"
       y2="-21.792793"
       gradientUnits="userSpaceOnUse" /><filter
       style="color-interpolation-filters:sRGB"
       id="filter6"
       x="-0.24605518"
       y="-0.58571072"
       width="1.4921104"
       height="2.1714214"><feGaussianBlur
         stdDeviation="4.6571723"
         id="feGaussianBlur6" /></filter><filter
       style="color-interpolation-filters:sRGB"
       id="filter7"
       x="-0.009504327"
       y="-0.0070002802"
       width="1.0190087"
       height="1.0140006"><feGaussianBlur
         stdDeviation="0.30421378"
         id="feGaussianBlur7" /></filter></defs><g
     id="g1"
     transform="translate(900.83524,218.04337)"><path
       id="path1"
       style="fill:#0042ab;fill-opacity:1;stroke:none;stroke-width:1.3115;stroke-linecap:round;stroke-opacity:0.960784"
       d="m -828.7822,-211.39164 a 70.95433,70.95433 0 0 0 -70.95312,70.95508 70.95433,70.95433 0 0 0 70.95312,70.955075 70.95433,70.95433 0 0 0 70.67188,-67.005855 62.754799,62.754799 0 0 1 -61.40821,50.568355 62.754799,62.754799 0 0 1 -62.7539,-62.753905 62.754799,62.754799 0 0 1 58.98633,-62.48438 70.95433,70.95433 0 0 0 -5.4961,-0.23437 z" /><path
       id="path1-1-2"
       style="fill:#0047a5;fill-opacity:1;stroke:none;stroke-width:1.06856;stroke-linecap:round;stroke-opacity:0.960784"
       d="m -819.72663,-206.35062 a 57.810567,57.810567 0 0 0 -57.80964,57.81162 57.810567,57.810567 0 0 0 57.80964,57.809627 57.810567,57.810567 0 0 0 57.81162,-57.809627 57.810567,57.810567 0 0 0 -57.81162,-57.81162 z m -1.1219,24.77156 c 5.47761,-1e-4 10.10087,2.11161 13.13538,5.82508 5.59784,7.05042 5.27896,18.56572 -2.76482,22.13051 7.2476,-0.43946 11.78539,4.73806 13.61647,15.53288 2.13201,16.87291 -10.34556,20.2131 -13.19127,21.06451 -20.64179,4.97172 -20.82231,-7.7548 -24.04493,-18.29769 l 11.49047,-2.55322 1.4892,6.38204 c 2.86941,8.40259 12.44762,6.54869 12.55447,-0.21161 0.6458,-11.06926 -2.19368,-17.16011 -14.89408,-14.89607 l -1.2776,-9.14885 c 6.40151,-0.22913 9.59413,-3.067 9.57604,-8.51204 0.38161,-8.51336 -9.52289,-10.43694 -12.12926,-4.04242 l 0.8504,7.65964 -10.85165,1.7028 c -2.55338,-9.36237 -0.46779,-17.35782 8.51204,-21.27811 2.7742,-0.92158 5.43932,-1.35741 7.92914,-1.35745 z" /><path
       style="opacity:0.229508;fill:url(#linearGradient6);stroke:none;stroke-width:0.555591;stroke-linecap:round;stroke-dasharray:none;stroke-opacity:0.960784;filter:url(#filter4)"
       d="m -655.2022,-65.305299 c 4.11218,3.378099 6.97856,8.192544 8.18875,13.374923 1.21019,5.182378 0.78974,10.704223 -0.99687,15.717169 -0.46531,1.305593 -1.02403,2.584639 -1.7712,3.752041 -1.17869,1.841623 -2.82883,3.385232 -4.76556,4.400098 -1.93673,1.014866 -4.1573,1.49377 -6.33723,1.324065 -2.17993,-0.169705 -4.31089,-0.993288 -6.01158,-2.367518 -1.7007,-1.37423 -2.95876,-3.297756 -3.49478,-5.417559 -0.39821,-1.574807 -0.40204,-3.21859 -0.41201,-4.842933 -0.01,-1.624343 -0.0313,-3.270097 -0.46226,-4.836255 -0.58374,-2.121297 -1.91996,-4.011201 -3.66576,-5.350167 -1.7458,-1.338965 -3.88605,-2.134014 -6.0744,-2.36164 -2.18834,-0.227626 -4.42081,0.102009 -6.48786,0.855629 -2.06706,0.753621 -3.97096,1.924689 -5.64591,3.351291 -5.42453,4.620223 -8.17817,11.54157 -11.19209,17.998216 -3.13866,6.72389 -6.95955,13.451513 -13.00773,17.750516 -3.02409,2.1495016 -6.57509,3.6248977 -10.2733,3.9227743 -3.6982,0.2978766 -7.53805,-0.6352685 -10.50616,-2.8614263 -2.15849,-1.618924 -3.81795,-3.89402 -4.70017,-6.443866 -0.88221,-2.549845 -0.98357,-5.364022 -0.28709,-7.97073 1.41206,-8.029468 4.53597,-15.753614 9.10269,-22.507232 7.34162,-10.857355 18.47503,-19.112375 31.02117,-22.903919 10.07468,-3.044647 20.89719,-3.238764 31.24878,-1.33782 5.91874,1.086905 11.88066,2.934508 16.53057,6.754343 z"
       id="path4"
       transform="translate(-133.66501,-132.48734)" /><path
       style="opacity:0.702576;mix-blend-mode:normal;fill:#c7dcff;fill-opacity:1;stroke:none;stroke-width:0.555591;stroke-linecap:round;stroke-dasharray:none;stroke-opacity:0.960784;filter:url(#filter5)"
       d="m -725.44181,-42.39595 c -0.41335,0.117226 -0.79248,0.340046 -1.11912,0.61916 -0.32663,0.279115 -0.60252,0.613751 -0.84363,0.969368 -0.48222,0.711232 -0.82765,1.505728 -1.27583,2.238884 -0.44182,0.722747 -0.98202,1.383441 -1.3962,2.122373 -0.41418,0.738932 -0.70159,1.590218 -0.57338,2.427554 0.0688,0.449323 0.2569,0.878423 0.53163,1.240565 0.27473,0.362143 0.63489,0.65745 1.03864,0.866274 0.80751,0.417648 1.77516,0.478742 2.65514,0.250413 0.87998,-0.22833 1.67433,-0.73168 2.32401,-1.367616 0.64968,-0.635935 1.16122,-1.401542 1.58555,-2.205558 0.38393,-0.727472 0.70168,-1.495867 0.8655,-2.301958 0.16382,-0.806092 0.16938,-1.653118 -0.0606,-2.442891 -0.22996,-0.789772 -0.70561,-1.518657 -1.38221,-1.986446 -0.67661,-0.46779 -1.55816,-0.654553 -2.34952,-0.430122 z"
       id="path5"
       transform="matrix(1.5775526,0,0,1.5775526,286.94496,-107.05332)" /><path
       style="opacity:0.908665;mix-blend-mode:normal;fill:#ffffff;fill-opacity:1;stroke:none;stroke-width:0.555591;stroke-linecap:round;stroke-dasharray:none;stroke-opacity:0.960784;filter:url(#filter6)"
       d="m -836.43147,-203.26768 c 5.29181,-2.11682 11.00604,-3.1714 16.70484,-3.08294 0.70088,0.0109 1.40154,0.0388 2.1025,0.0382 5.04449,-0.005 10.02892,-1.48645 15.06574,-1.2084 2.51842,0.13903 5.05618,0.74118 7.186,2.09233 2.12982,1.35114 3.81495,3.51162 4.25125,5.99584 0.24881,1.41668 0.0878,2.89654 -0.41383,4.24459 -0.50164,1.34804 -1.33856,2.56391 -2.38504,3.55069 -2.09297,1.97357 -4.97515,2.98761 -7.8477,3.14233 -2.87255,0.15473 -5.74193,-0.49853 -8.43216,-1.51743 -2.69023,-1.01891 -5.2265,-2.39837 -7.76264,-3.75612 -6.10355,-3.26759 -12.26099,-6.43453 -18.46896,-9.4991 z"
       id="path6"
       transform="matrix(0.49196266,0.18400933,0.18400933,-0.49196266,-387.75036,-149.29808)" /><path
       style="opacity:0.248244;fill:#2e7ce1;fill-opacity:1;stroke:none;stroke-width:0.555591;stroke-linecap:round;stroke-dasharray:none;stroke-opacity:0.960784;filter:url(#filter7)"
       d="m -891.58811,-107.42396 c -30.63582,-63.01891 28.21123,-110.02144 68.30201,-103.73331 -48.12341,4.48592 -72.93459,52.26312 -50.09239,94.68865 -9.99542,9.79009 -16.0653,7.66904 -18.20962,9.04466 z"
       id="path7" /></g></svg>
